# xmcd
#
# Track frame offsets:
# 150
# 13561
# 31440
# 49383
# 64132
# 80602
# 94178
# 109652
# 126321
# 142697
# 155604
#
# Disc length: 2278 seconds
#
#
# Revision: 0
# Processed by: cddbd v1.5.2PL0 Copyright (c) Steve Scherf et al.
# Submitted via: FreeRIP 2.951 
#
DISCID=9008e40b
DTITLE=Os meninos de goias - Caisei com a tia
DYEAR=2006
DGENRE=Sertanejo
TTITLE0=Veneno de Mulher
TTITLE1=Casei com a tia (Internet)
TTITLE2=Inveja
TTITLE3=Volta
TTITLE4=Ela vai me dar
TTITLE5=Carteiro Safado
TTITLE6=Foi voce quem quis
TTITLE7=Caminhos do Sol
TTITLE8=Bem feito pra quem ama
TTITLE9=Toca aquela
TTITLE10=Perdão
EXTD=
EXTT0=
EXTT1=
EXTT2=
EXTT3=
EXTT4=
EXTT5=
EXTT6=
EXTT7=
EXTT8=
EXTT9=
EXTT10=
PLAYORDER=
